<svg xmlns="http://www.w3.org/2000/svg" viewBox="0 0 36 36"><path fill="#269" d="M35 26a4 4 0 0 1-4 4H5a4 4 0 0 1-4-4V6.31C1 4.11 6.8 0 9 0h20.63A5.24 5.24 0 0 1 35 5.38V26z"/><path fill="#ccd6dd" d="M33 30a4 4 0 0 1-4 4H7a4 4 0 0 1-4-4V6c0-4.12-.02-4 5-4h21a4 4 0 0 1 4 4v24z"/><path fill="#e1e8ed" d="M31 31a3 3 0 0 1-3 3H4a3 3 0 0 1-3-3V7a3 3 0 0 1 3-3h24a3 3 0 0 1 3 3v24z"/><path fill="#3b88c3" d="M31 32a4 4 0 0 1-4 4H6a4 4 0 0 1-4-4V10a4 4 0 0 1 4-4h21a4 4 0 0 1 4 4v22z"/><path fill="#55acee" d="M29 32a4 4 0 0 1-4 4H6a4 4 0 0 1-4-4V12a4 4 0 0 1 4-4h19.34C27.54 8 29 9.46 29 11.66V32z"/><path fill="#269" d="M6 6C4.31 6 4.27 4.08 5 3.25 5.83 2.31 7.13 2 9.44 2H11V0H8.28C4.31 0 1 2.5 1 5.38V32a4 4 0 0 0 4 4h2V6H6z"/></svg>
